<mxfile host="65bd71144e">
    <diagram id="tmV2XUQ6p0qesgGjX6jx" name="第 1 页">
        <mxGraphModel dx="756" dy="596" grid="1" gridSize="10" guides="1" tooltips="1" connect="1" arrows="1" fold="1" page="1" pageScale="1" pageWidth="827" pageHeight="1169" math="0" shadow="0">
            <root>
                <mxCell id="0"/>
                <mxCell id="1" parent="0"/>
                <mxCell id="2" value="" style="rounded=1;whiteSpace=wrap;html=1;" parent="1" vertex="1">
                    <mxGeometry x="110" y="190" width="180" height="650" as="geometry"/>
                </mxCell>
                <mxCell id="3" value="&lt;font style=&quot;font-size: 15px;&quot;&gt;insert into user (id, name) values (1, &quot;张三&quot;);&lt;/font&gt;" style="rounded=1;whiteSpace=wrap;html=1;fontSize=16;" parent="1" vertex="1">
                    <mxGeometry x="140" y="200" width="120" height="60" as="geometry"/>
                </mxCell>
                <mxCell id="4" value="&lt;font style=&quot;font-size: 24px;&quot;&gt;事务1001&lt;/font&gt;" style="text;html=1;strokeColor=none;fillColor=none;align=center;verticalAlign=middle;whiteSpace=wrap;rounded=0;" parent="1" vertex="1">
                    <mxGeometry x="155" y="150" width="110" height="30" as="geometry"/>
                </mxCell>
                <mxCell id="5" value="" style="rounded=1;whiteSpace=wrap;html=1;" parent="1" vertex="1">
                    <mxGeometry x="310" y="190" width="180" height="650" as="geometry"/>
                </mxCell>
                <mxCell id="6" value="&lt;span style=&quot;text-align: center;&quot;&gt;&lt;font style=&quot;font-size: 16px;&quot;&gt;update user set name = “王五” where id =1;&lt;/font&gt;&lt;/span&gt;" style="rounded=1;whiteSpace=wrap;html=1;align=left;" parent="1" vertex="1">
                    <mxGeometry x="340" y="515" width="120" height="60" as="geometry"/>
                </mxCell>
                <mxCell id="7" value="&lt;font style=&quot;font-size: 24px;&quot;&gt;事务1002&lt;/font&gt;" style="text;html=1;strokeColor=none;fillColor=none;align=center;verticalAlign=middle;whiteSpace=wrap;rounded=0;" parent="1" vertex="1">
                    <mxGeometry x="345" y="150" width="110" height="30" as="geometry"/>
                </mxCell>
                <mxCell id="11" value="" style="shape=flexArrow;endArrow=classic;html=1;fontSize=24;" parent="1" edge="1">
                    <mxGeometry width="50" height="50" relative="1" as="geometry">
                        <mxPoint x="80" y="250" as="sourcePoint"/>
                        <mxPoint x="80" y="790" as="targetPoint"/>
                    </mxGeometry>
                </mxCell>
                <mxCell id="12" value="命令执行顺序&lt;br&gt;|&lt;br&gt;|&lt;br&gt;时间线" style="text;html=1;strokeColor=none;fillColor=none;align=center;verticalAlign=middle;whiteSpace=wrap;rounded=0;fontSize=24;" parent="1" vertex="1">
                    <mxGeometry x="40" y="295" width="30" height="350" as="geometry"/>
                </mxCell>
                <mxCell id="17" value="" style="rounded=1;whiteSpace=wrap;html=1;" parent="1" vertex="1">
                    <mxGeometry x="510" y="190" width="180" height="650" as="geometry"/>
                </mxCell>
                <mxCell id="19" value="&lt;font style=&quot;font-size: 24px;&quot;&gt;事务1003&lt;/font&gt;" style="text;html=1;strokeColor=none;fillColor=none;align=center;verticalAlign=middle;whiteSpace=wrap;rounded=0;" parent="1" vertex="1">
                    <mxGeometry x="545" y="150" width="110" height="30" as="geometry"/>
                </mxCell>
                <mxCell id="22" value="" style="rounded=1;whiteSpace=wrap;html=1;strokeColor=#6666FF;" parent="1" vertex="1">
                    <mxGeometry x="710" y="190" width="180" height="650" as="geometry"/>
                </mxCell>
                <mxCell id="24" value="&lt;font style=&quot;font-size: 24px;&quot;&gt;事务A&lt;/font&gt;" style="text;html=1;strokeColor=none;fillColor=none;align=center;verticalAlign=middle;whiteSpace=wrap;rounded=0;fontColor=#6666FF;" parent="1" vertex="1">
                    <mxGeometry x="745" y="150" width="110" height="30" as="geometry"/>
                </mxCell>
                <mxCell id="27" value="" style="rounded=1;whiteSpace=wrap;html=1;" parent="1" vertex="1">
                    <mxGeometry x="910" y="190" width="180" height="650" as="geometry"/>
                </mxCell>
                <mxCell id="29" value="&lt;font style=&quot;font-size: 24px;&quot;&gt;事务1004&lt;/font&gt;" style="text;html=1;strokeColor=none;fillColor=none;align=center;verticalAlign=middle;whiteSpace=wrap;rounded=0;" parent="1" vertex="1">
                    <mxGeometry x="945" y="150" width="110" height="30" as="geometry"/>
                </mxCell>
                <mxCell id="32" value="commit;" style="rounded=1;whiteSpace=wrap;html=1;fontSize=16;" parent="1" vertex="1">
                    <mxGeometry x="140" y="280" width="120" height="60" as="geometry"/>
                </mxCell>
                <mxCell id="33" value="&lt;span style=&quot;text-align: center; font-size: 16px;&quot;&gt;update user set name = “李四0” where id =1;&lt;/span&gt;" style="rounded=1;whiteSpace=wrap;html=1;align=left;fontSize=16;" parent="1" vertex="1">
                    <mxGeometry x="540" y="360" width="120" height="60" as="geometry"/>
                </mxCell>
                <mxCell id="36" value="&lt;font style=&quot;font-size: 16px;&quot;&gt;select * from user where id = 1;&lt;/font&gt;" style="rounded=1;whiteSpace=wrap;html=1;align=left;strokeColor=#6666FF;" parent="1" vertex="1">
                    <mxGeometry x="740" y="440" width="120" height="60" as="geometry"/>
                </mxCell>
                <mxCell id="40" value="commit;" style="rounded=1;whiteSpace=wrap;html=1;" parent="1" vertex="1">
                    <mxGeometry x="540" y="680" width="120" height="60" as="geometry"/>
                </mxCell>
                <mxCell id="41" value="&lt;font style=&quot;font-size: 16px;&quot;&gt;select * from user where id = 1;&lt;/font&gt;" style="rounded=1;whiteSpace=wrap;html=1;align=left;strokeColor=#6666FF;" parent="1" vertex="1">
                    <mxGeometry x="740" y="760" width="120" height="60" as="geometry"/>
                </mxCell>
                <mxCell id="44" value="" style="rounded=1;whiteSpace=wrap;html=1;strokeColor=#6666FF;" parent="1" vertex="1">
                    <mxGeometry x="1110" y="190" width="180" height="650" as="geometry"/>
                </mxCell>
                <mxCell id="45" value="&lt;font style=&quot;font-size: 24px;&quot;&gt;事务B&lt;/font&gt;" style="text;html=1;strokeColor=none;fillColor=none;align=center;verticalAlign=middle;whiteSpace=wrap;rounded=0;fontColor=#6666FF;" parent="1" vertex="1">
                    <mxGeometry x="1145" y="150" width="110" height="30" as="geometry"/>
                </mxCell>
                <mxCell id="47" value="&lt;font style=&quot;font-size: 16px;&quot;&gt;select * from user where id = 1;&lt;/font&gt;" style="rounded=1;whiteSpace=wrap;html=1;align=left;strokeColor=#6666FF;" parent="1" vertex="1">
                    <mxGeometry x="1135" y="760" width="120" height="60" as="geometry"/>
                </mxCell>
                <mxCell id="9" value="" style="endArrow=none;dashed=1;html=1;dashPattern=1 3;strokeWidth=2;fontSize=24;" parent="1" edge="1">
                    <mxGeometry width="50" height="50" relative="1" as="geometry">
                        <mxPoint x="100" y="270" as="sourcePoint"/>
                        <mxPoint x="1330" y="270" as="targetPoint"/>
                    </mxGeometry>
                </mxCell>
                <mxCell id="10" value="" style="endArrow=none;dashed=1;html=1;dashPattern=1 3;strokeWidth=2;fontSize=24;" parent="1" edge="1">
                    <mxGeometry width="50" height="50" relative="1" as="geometry">
                        <mxPoint x="100" y="350" as="sourcePoint"/>
                        <mxPoint x="1330" y="350" as="targetPoint"/>
                        <Array as="points">
                            <mxPoint x="350" y="350"/>
                        </Array>
                    </mxGeometry>
                </mxCell>
                <mxCell id="13" value="" style="endArrow=none;dashed=1;html=1;dashPattern=1 3;strokeWidth=2;fontSize=24;" parent="1" edge="1">
                    <mxGeometry width="50" height="50" relative="1" as="geometry">
                        <mxPoint x="100" y="430" as="sourcePoint"/>
                        <mxPoint x="1330" y="430" as="targetPoint"/>
                        <Array as="points">
                            <mxPoint x="350" y="430"/>
                        </Array>
                    </mxGeometry>
                </mxCell>
                <mxCell id="15" value="" style="endArrow=none;dashed=1;html=1;dashPattern=1 3;strokeWidth=2;fontSize=24;" parent="1" edge="1">
                    <mxGeometry width="50" height="50" relative="1" as="geometry">
                        <mxPoint x="100" y="510" as="sourcePoint"/>
                        <mxPoint x="1330" y="510" as="targetPoint"/>
                        <Array as="points">
                            <mxPoint x="350" y="510"/>
                        </Array>
                    </mxGeometry>
                </mxCell>
                <mxCell id="34" value="" style="endArrow=none;dashed=1;html=1;dashPattern=1 3;strokeWidth=2;fontSize=24;" parent="1" edge="1">
                    <mxGeometry width="50" height="50" relative="1" as="geometry">
                        <mxPoint x="100" y="590" as="sourcePoint"/>
                        <mxPoint x="1330" y="590" as="targetPoint"/>
                        <Array as="points">
                            <mxPoint x="360" y="590"/>
                        </Array>
                    </mxGeometry>
                </mxCell>
                <mxCell id="39" value="" style="endArrow=none;dashed=1;html=1;dashPattern=1 3;strokeWidth=2;fontSize=24;" parent="1" edge="1">
                    <mxGeometry width="50" height="50" relative="1" as="geometry">
                        <mxPoint x="100" y="670" as="sourcePoint"/>
                        <mxPoint x="1330" y="670" as="targetPoint"/>
                        <Array as="points">
                            <mxPoint x="360" y="670"/>
                        </Array>
                    </mxGeometry>
                </mxCell>
                <mxCell id="43" value="" style="endArrow=none;dashed=1;html=1;dashPattern=1 3;strokeWidth=2;fontSize=24;" parent="1" edge="1">
                    <mxGeometry width="50" height="50" relative="1" as="geometry">
                        <mxPoint x="100" y="750" as="sourcePoint"/>
                        <mxPoint x="1330" y="750" as="targetPoint"/>
                        <Array as="points">
                            <mxPoint x="370" y="750"/>
                        </Array>
                    </mxGeometry>
                </mxCell>
                <mxCell id="48" value="&lt;span style=&quot;text-align: center; font-size: 16px;&quot;&gt;&lt;font color=&quot;#ff3333&quot;&gt;update test set a = “1” where id =1;&lt;/font&gt;&lt;/span&gt;" style="rounded=1;whiteSpace=wrap;html=1;align=left;fontSize=16;strokeColor=#FF0000;" parent="1" vertex="1">
                    <mxGeometry x="940" y="200" width="120" height="60" as="geometry"/>
                </mxCell>
                <mxCell id="50" value="&lt;span style=&quot;text-align: center; font-size: 16px;&quot;&gt;update user set name = “李四” where id =1;&lt;/span&gt;" style="rounded=1;whiteSpace=wrap;html=1;align=left;fontSize=16;" parent="1" vertex="1">
                    <mxGeometry x="540" y="600" width="120" height="60" as="geometry"/>
                </mxCell>
                <mxCell id="61" value="" style="shape=flexArrow;endArrow=classic;html=1;fontSize=16;fontColor=#FF3333;" parent="1" edge="1">
                    <mxGeometry width="50" height="50" relative="1" as="geometry">
                        <mxPoint x="330" y="110" as="sourcePoint"/>
                        <mxPoint x="940" y="110" as="targetPoint"/>
                    </mxGeometry>
                </mxCell>
                <mxCell id="62" value="事务开始顺序" style="text;html=1;strokeColor=none;fillColor=none;align=center;verticalAlign=middle;whiteSpace=wrap;rounded=0;fontSize=24;" parent="1" vertex="1">
                    <mxGeometry x="430" y="70" width="340" height="30" as="geometry"/>
                </mxCell>
                <mxCell id="64" value="&lt;span style=&quot;text-align: center; font-size: 16px;&quot;&gt;&lt;font color=&quot;#ff3333&quot;&gt;update test set a = “1” where id =2;&lt;/font&gt;&lt;/span&gt;" style="rounded=1;whiteSpace=wrap;html=1;align=left;fontSize=16;strokeColor=#FF0000;" parent="1" vertex="1">
                    <mxGeometry x="340" y="200" width="120" height="60" as="geometry"/>
                </mxCell>
            </root>
        </mxGraphModel>
    </diagram>
</mxfile>